<svg width="130" height="46" viewBox="0 0 130 46" fill="none" xmlns="http://www.w3.org/2000/svg">
    <g clip-path="url(#clip0_164_33)">
        <mask id="mask0_164_33" style="mask-type:luminance" maskUnits="userSpaceOnUse" x="0" y="15" width="15" height="27">
            <path d="M0.728948 16.9061C0.465827 17.2976 0.293459 17.7429 0.224432 18.2095C0.224432 18.3356 0.224432 18.4337 0.224432 18.5598V38.6844C0.217507 38.8011 0.217507 38.9181 0.224432 39.0347C0.297669 39.5624 0.50399 40.0628 0.823979 40.4887C1.14397 40.9147 1.5671 41.2522 2.05353 41.4695C2.53995 41.6867 3.07367 41.7766 3.60443 41.7307C4.1352 41.6848 4.64553 41.5046 5.0874 41.207L12.2768 36.5122C12.8219 36.1625 13.2705 35.6817 13.5815 35.1136C13.8925 34.5455 14.0558 33.9085 14.0566 33.2608V24.0394C14.049 23.3854 13.8832 22.7429 13.5732 22.1669C13.2633 21.591 12.8184 21.0986 12.2768 20.732L5.0874 16.0372C4.74431 15.8077 4.35932 15.648 3.95445 15.5675C3.54958 15.4869 3.1328 15.487 2.72796 15.5677C2.32312 15.6484 1.93817 15.8081 1.59516 16.0378C1.25214 16.2675 0.957781 16.5625 0.728948 16.9061Z" fill="white"/>
        </mask>
        <g mask="url(#mask0_164_33)">
            <path d="M14.0565 15.5046H0.196289V41.9497H14.0565V15.5046Z" fill="url(#paint0_linear_164_33)"/>
        </g>
        <mask id="mask1_164_33" style="mask-type:luminance" maskUnits="userSpaceOnUse" x="0" y="0" width="15" height="17">
            <path d="M11.1276 0.116943C10.5812 0.127765 10.0482 0.287684 9.58605 0.579419L2.06035 5.42837C1.30724 5.90905 0.775272 6.66854 0.580904 7.54057C0.386536 8.4126 0.545621 9.32612 1.0233 10.0811C1.29183 10.4924 1.64546 10.8413 2.06035 11.1042L9.58605 15.9391C9.90659 16.1463 10.265 16.2879 10.6406 16.3557C11.0162 16.4234 11.4016 16.4161 11.7743 16.334C12.1471 16.2518 12.4998 16.0966 12.8122 15.8773C13.1245 15.658 13.3903 15.3789 13.5942 15.0562C13.8983 14.5946 14.0592 14.0534 14.0566 13.5006V3.00389C14.0529 2.23694 13.7456 1.50266 13.202 0.96165C12.6584 0.420641 11.9226 0.116934 11.1557 0.116943" fill="white"/>
        </mask>
        <g mask="url(#mask1_164_33)">
            <path d="M14.0283 0.116943H0V16.808H14.0283V0.116943Z" fill="url(#paint1_linear_164_33)"/>
        </g>
        <path d="M61.0321 23.9132V33.9755H57.2483V23.9552C57.3417 22.7015 57.011 21.4527 56.3093 20.4096C55.977 19.9931 55.5479 19.6643 55.0593 19.4518C54.5708 19.2393 54.0376 19.1495 53.5064 19.1904C52.9187 19.1662 52.3335 19.2804 51.7979 19.5238C51.2624 19.7672 50.7915 20.133 50.4233 20.5918C49.6117 21.6749 49.2095 23.0104 49.2881 24.3616V34.0035H45.5042V23.9833C45.6246 22.7194 45.3187 21.4516 44.6354 20.3816C44.2941 19.9774 43.8627 19.659 43.3758 19.4521C42.889 19.2452 42.3603 19.1555 41.8325 19.1904C41.251 19.1673 40.6722 19.2822 40.1436 19.5258C39.615 19.7694 39.1517 20.1347 38.7914 20.5918C37.9864 21.6996 37.5857 23.0501 37.6562 24.4177V33.9615H33.9004V16.1773H37.1657L37.5862 18.5037C38.1897 17.6956 38.9779 17.0436 39.8848 16.6023C40.7918 16.161 41.7912 15.9432 42.7995 15.9671C43.9526 15.9417 45.0925 16.217 46.1069 16.7659C47.0806 17.3204 47.8478 18.1761 48.2931 19.2044C48.8959 18.2058 49.7516 17.384 50.7736 16.8219C51.9072 16.2218 53.1774 15.9271 54.4594 15.9671C55.3414 15.9347 56.2205 16.0862 57.0408 16.4119C57.8611 16.7376 58.6047 17.2304 59.2243 17.859C60.6046 19.5647 61.2634 21.7424 61.0602 23.9272" fill="black"/>
        <path d="M80.2741 20.2135C81.0267 21.7166 81.3974 23.382 81.3532 25.0624C81.3927 26.72 81.022 28.3616 80.2741 29.8413C79.5986 31.1545 78.5633 32.2482 77.2891 32.9946C75.9692 33.7549 74.4676 34.1424 72.9446 34.1157C71.754 34.1485 70.5726 33.8988 69.4971 33.387C68.5615 32.9382 67.756 32.258 67.1567 31.4109V40.8706H63.4009V16.1774H66.6802L67.1287 18.8121C67.8024 17.9128 68.6824 17.1887 69.6946 16.7009C70.7068 16.2131 71.8215 15.9759 72.9446 16.0092C74.4638 15.9843 75.9626 16.3614 77.2891 17.1023C78.5754 17.8397 79.6141 18.9419 80.2741 20.2695M77.4713 25.1185C77.5562 23.5684 77.0561 22.043 76.0698 20.8441C75.5875 20.3295 75.0047 19.9193 74.3574 19.6388C73.7102 19.3584 73.0123 19.2137 72.307 19.2137C71.6016 19.2137 70.9038 19.3584 70.2565 19.6388C69.6093 19.9193 69.0265 20.3295 68.5441 20.8441C67.5685 22.0215 67.0686 23.5212 67.1427 25.0484C67.0617 26.6194 67.5604 28.1654 68.5441 29.3929C69.0007 29.9408 69.5764 30.3772 70.2273 30.6686C70.8783 30.9601 71.5872 31.0989 72.3 31.0746C73.0145 31.0969 73.7249 30.9572 74.3777 30.666C75.0306 30.3747 75.6091 29.9395 76.0698 29.3929C77.0835 28.1844 77.604 26.6379 77.5273 25.0624L77.4713 25.1185Z" fill="black"/>
        <path d="M100.384 33.9755H98.3944C97.4985 34.056 96.6059 33.7902 95.8999 33.2328C95.6321 32.9525 95.4253 32.6198 95.2926 32.2555C95.1599 31.8913 95.1043 31.5035 95.1291 31.1166C94.5077 32.1004 93.6373 32.9023 92.6061 33.4413C91.5749 33.9803 90.4195 34.2371 89.2571 34.1858C87.5432 34.2687 85.8509 33.7754 84.4502 32.7843C83.8618 32.3405 83.3899 31.7605 83.075 31.0941C82.7601 30.4277 82.6116 29.6948 82.6423 28.9584C82.5991 28.1518 82.7541 27.347 83.0937 26.6141C83.4332 25.8812 83.9471 25.2426 84.5903 24.7541C86.2701 23.6542 88.2629 23.1327 90.2661 23.2686H94.7507V22.1895C94.7745 21.7439 94.6915 21.2991 94.5087 20.892C94.3259 20.4849 94.0485 20.1274 93.6996 19.8491C92.8896 19.2422 91.894 18.9351 90.8828 18.9802C89.9346 18.9444 88.9974 19.1934 88.192 19.6949C87.8587 19.9032 87.5728 20.1793 87.3531 20.5053C87.1334 20.8312 86.9847 21.1997 86.9167 21.5869H83.2309C83.2877 20.754 83.5298 19.9442 83.9396 19.2168C84.3494 18.4895 84.9164 17.8628 85.5994 17.3826C87.2315 16.3593 89.1418 15.8695 91.065 15.9811C93.0045 15.8586 94.9251 16.4244 96.4885 17.5788C97.1527 18.1798 97.6728 18.9228 98.0101 19.7527C98.3473 20.5825 98.4931 21.4777 98.4365 22.3717V29.3788C98.4365 30.2057 98.8429 30.6261 99.6277 30.6261H100.356L100.384 33.9755ZM90.0839 25.9874C89.1438 25.9312 88.2091 26.1661 87.4072 26.6601C87.0947 26.8881 86.8448 27.1913 86.6806 27.5416C86.5165 27.892 86.4435 28.278 86.4683 28.6641C86.4589 29.0183 86.5341 29.3696 86.6876 29.6888C86.8412 30.0081 87.0686 30.2862 87.3511 30.5C88.0582 30.9981 88.9119 31.2448 89.7756 31.2007C91.1026 31.2794 92.407 30.8311 93.4053 29.9534C93.8555 29.5206 94.212 29 94.4531 28.4239C94.6941 27.8478 94.8145 27.2284 94.8068 26.604V25.9874H90.0839Z" fill="black"/>
        <path d="M109.606 34.1857C107.959 34.2099 106.334 33.7989 104.897 32.9945C103.562 32.2538 102.479 31.1315 101.786 29.7712C101.035 28.2871 100.659 26.6413 100.693 24.9783C100.653 23.322 101.034 21.6828 101.8 20.2134C102.518 18.8645 103.614 17.7542 104.953 17.0182C106.402 16.2513 108.023 15.8655 109.662 15.897C111.634 15.8146 113.571 16.4355 115.127 17.6488C116.567 18.8684 117.51 20.5737 117.776 22.4417H113.908C113.69 21.4794 113.151 20.6197 112.381 20.0032C111.577 19.3895 110.588 19.0682 109.578 19.0923C108.885 19.0686 108.197 19.2041 107.565 19.4884C106.934 19.7726 106.375 20.1981 105.934 20.732C104.983 21.9226 104.486 23.4129 104.533 24.9363C104.473 26.4872 104.97 28.0082 105.934 29.2247C106.738 30.1354 107.852 30.7144 109.059 30.8491C110.266 30.9838 111.48 30.6645 112.465 29.9534C113.236 29.3241 113.765 28.4478 113.964 27.4729H117.79C117.534 29.3696 116.573 31.1006 115.099 32.3218C113.526 33.5463 111.569 34.1722 109.578 34.0876" fill="black"/>
        <path d="M117.846 19.4707V16.1774H120.943V11.2023H124.741V16.1774H128.946V19.4847H124.741V28.7903C124.692 29.3183 124.837 29.8463 125.148 30.2758C125.539 30.6004 126.043 30.7566 126.549 30.7102H129.352V34.0176H125.736C125.074 34.1345 124.393 34.0907 123.75 33.8897C123.108 33.6888 122.524 33.3367 122.046 32.863C121.568 32.3892 121.211 31.8077 121.004 31.1673C120.798 30.5269 120.748 29.8463 120.859 29.1827V19.5128L117.846 19.4707Z" fill="black"/>
        <path d="M30.6074 15.757H26.9497V33.9756H30.6074V15.757Z" fill="black"/>
        <path d="M128.511 38.9646H129.436V43.1689C129.465 43.6802 129.294 44.1826 128.96 44.5704C128.746 44.7781 128.491 44.9381 128.21 45.0395C127.93 45.141 127.631 45.1817 127.334 45.159C126.017 45.159 125.316 44.6825 125.246 43.7575H126.213C126.223 43.8718 126.262 43.9817 126.326 44.0772C126.389 44.1727 126.476 44.2507 126.577 44.3041C126.811 44.3879 127.058 44.4259 127.306 44.4162C128.105 44.4162 128.511 43.9958 128.511 43.1549V42.6364C128.344 42.8483 128.131 43.0199 127.889 43.1388C127.646 43.2576 127.38 43.3206 127.11 43.3231C126.855 43.3409 126.6 43.3066 126.359 43.2222C126.118 43.1379 125.897 43.0053 125.709 42.8326C125.489 42.6108 125.32 42.3449 125.211 42.0526C125.102 41.7602 125.057 41.4481 125.078 41.1369C125.055 40.5878 125.223 40.0478 125.554 39.6093C125.727 39.3816 125.952 39.1999 126.211 39.0801C126.47 38.9604 126.755 38.9063 127.04 38.9226C127.32 38.8891 127.603 38.9407 127.853 39.0707C128.103 39.2007 128.308 39.4031 128.441 39.6513L128.511 38.9646ZM126.045 41.0528C126.029 41.3798 126.128 41.7021 126.325 41.9637C126.443 42.1116 126.596 42.2284 126.769 42.3041C126.942 42.3798 127.132 42.4121 127.32 42.3982C127.482 42.4043 127.643 42.3733 127.791 42.3078C127.94 42.2422 128.071 42.1437 128.175 42.0198C128.409 41.7478 128.529 41.3967 128.511 41.0388C128.524 40.8393 128.489 40.6398 128.408 40.4568C128.328 40.2739 128.205 40.113 128.049 39.9877C127.814 39.815 127.528 39.7262 127.236 39.7354C127.076 39.7333 126.917 39.7646 126.77 39.8274C126.623 39.8901 126.491 39.9829 126.381 40.0998C126.155 40.3646 126.035 40.7043 126.045 41.0528ZM120.677 43.3231V38.9787H121.588V39.6373C121.731 39.395 121.937 39.1957 122.184 39.0601C122.43 38.9244 122.709 38.8576 122.99 38.8665C123.192 38.8498 123.395 38.877 123.585 38.9462C123.775 39.0155 123.948 39.1251 124.092 39.2676C124.236 39.4101 124.347 39.5821 124.418 39.7717C124.489 39.9614 124.518 40.1641 124.503 40.3661V43.3231H123.578V40.7305C123.578 40.0578 123.284 39.7354 122.696 39.7354C122.561 39.7306 122.428 39.7529 122.302 39.8011C122.177 39.8493 122.063 39.9223 121.967 40.0157C121.836 40.1391 121.735 40.2898 121.669 40.4569C121.604 40.6241 121.576 40.8036 121.588 40.9827V43.3231H120.677ZM118.982 38.292V37.367H119.893V38.292H118.982ZM118.982 43.3231V38.9787H119.893V43.3231H118.982ZM116.529 42.1039V39.7915H115.8V38.9787H116.529V37.5772H117.51V38.9787H118.463V39.7915H117.51V41.7815C117.489 41.9724 117.489 42.1652 117.51 42.3561C117.529 42.4176 117.569 42.4708 117.623 42.5065C117.676 42.5422 117.74 42.5584 117.804 42.5523H118.463V43.3511C118.227 43.3926 117.988 43.4161 117.748 43.4212C117.562 43.4488 117.372 43.4314 117.194 43.3704C117.016 43.3095 116.856 43.2067 116.725 43.0708C116.568 42.7742 116.5 42.4384 116.529 42.1039ZM114.539 38.292V37.367H115.464V38.292H114.539ZM114.539 43.3231V38.9787H115.464V43.3231H114.539ZM109.942 41.9217V39.0207H110.853V41.4031C110.832 41.689 110.89 41.9751 111.022 42.23C111.103 42.3487 111.215 42.4429 111.346 42.5022C111.477 42.5615 111.622 42.5837 111.764 42.5663C112.025 42.5642 112.275 42.4642 112.465 42.286C112.594 42.1588 112.695 42.0055 112.76 41.8364C112.825 41.6672 112.854 41.486 112.843 41.305V38.9226H113.768V43.267H112.843V42.6644C112.7 42.9067 112.495 43.1061 112.248 43.2417C112.002 43.3773 111.723 43.4441 111.442 43.4352C110.503 43.4913 109.942 42.9447 109.942 41.8796V41.9217ZM106.845 43.3231V38.9787H107.77V39.8195C107.868 39.5294 108.058 39.2793 108.311 39.1072C108.564 38.9351 108.866 38.8506 109.172 38.8665H109.536V40.0017C109.348 39.933 109.148 39.8997 108.947 39.9036C108.675 39.8968 108.41 39.9917 108.205 40.1699C108.075 40.3081 107.974 40.4713 107.909 40.6496C107.844 40.8278 107.816 41.0175 107.826 41.2069V43.3091L106.845 43.3231ZM106.257 40.5202H105.29C105.264 40.2892 105.148 40.0778 104.967 39.9316C104.784 39.775 104.55 39.6903 104.309 39.6934C104.127 39.6855 103.947 39.7222 103.783 39.8004C103.62 39.8786 103.478 39.9959 103.37 40.1419C103.164 40.4424 103.061 40.8011 103.075 41.1649C103.062 41.5202 103.155 41.8714 103.342 42.1739C103.431 42.2967 103.545 42.4 103.676 42.4776C103.806 42.5551 103.952 42.6052 104.102 42.6249C104.253 42.6445 104.406 42.6333 104.553 42.5919C104.699 42.5506 104.835 42.4799 104.953 42.3841C105.126 42.1774 105.246 41.9323 105.304 41.6694H106.299C106.29 41.9966 106.196 42.3158 106.026 42.5959C105.857 42.8759 105.617 43.1071 105.332 43.267C105.024 43.4261 104.683 43.5079 104.337 43.5053C104.019 43.5275 103.7 43.4729 103.407 43.346C103.114 43.2192 102.856 43.0239 102.655 42.7765C102.302 42.3154 102.124 41.7447 102.151 41.1649C102.12 40.5406 102.331 39.9286 102.739 39.4551C102.945 39.242 103.194 39.0754 103.47 38.9667C103.745 38.8579 104.041 38.8094 104.337 38.8245C104.726 38.8204 105.108 38.9221 105.444 39.1188C105.684 39.2678 105.887 39.4708 106.035 39.7116C106.183 39.9524 106.274 40.2245 106.299 40.5062L106.257 40.5202ZM98.2965 40.7305H100.693C100.656 40.3844 100.491 40.0647 100.231 39.8335C100.02 39.6778 99.764 39.5943 99.5018 39.5953C99.2483 39.5953 99.002 39.679 98.8011 39.8335C98.5283 40.0543 98.3482 40.3693 98.2965 40.7164V40.7305ZM101.646 41.4452H98.2965C98.3054 41.734 98.4033 42.013 98.5768 42.244C98.6822 42.3881 98.8222 42.5035 98.9838 42.5794C99.1454 42.6553 99.3235 42.6894 99.5018 42.6784C99.7187 42.6935 99.9351 42.6427 100.123 42.5327C100.31 42.4227 100.46 42.2585 100.553 42.0618H101.562C101.426 42.4089 101.205 42.7164 100.92 42.9562C100.635 43.1959 100.294 43.3603 99.9285 43.4342C99.5632 43.5081 99.1852 43.4892 98.8291 43.3792C98.473 43.2692 98.1501 43.0716 97.8901 42.8046C97.5502 42.3129 97.3763 41.7253 97.3939 41.1278C97.4116 40.5302 97.6198 39.954 97.9883 39.4832C98.1848 39.2726 98.4239 39.1062 98.6897 38.9951C98.9555 38.8839 99.2418 38.8306 99.5298 38.8385C99.8484 38.8195 100.167 38.8785 100.457 39.0104C100.748 39.1422 101.002 39.343 101.198 39.5953C101.553 40.0923 101.731 40.6946 101.702 41.305L101.646 41.4452ZM94.3585 43.3371V38.9927H95.2835V39.8335C95.381 39.5435 95.5708 39.2933 95.8238 39.1212C96.0769 38.9491 96.3793 38.8646 96.6849 38.8806H97.0633V40.0017C96.8748 39.933 96.6753 39.8997 96.4747 39.9036C96.2019 39.8925 95.9356 39.988 95.7319 40.1699C95.5951 40.3038 95.4891 40.466 95.4213 40.6451C95.3535 40.8242 95.3256 41.0159 95.3395 41.2069V43.3091L94.3585 43.3371ZM90.3224 43.3371V37.381H91.2473V43.3371H90.3224ZM88.4725 41.5853V41.1649C88.0868 41.3173 87.6806 41.4117 87.2673 41.4452C87.0187 41.4606 86.7779 41.5376 86.5666 41.6694C86.5083 41.725 86.4629 41.7927 86.4339 41.8678C86.4048 41.9429 86.3927 42.0235 86.3984 42.1039C86.3984 42.5523 86.6507 42.7765 87.1412 42.7765C87.4444 42.7918 87.7444 42.7082 87.996 42.5383C88.1554 42.4352 88.2838 42.2908 88.3677 42.1205C88.4516 41.9503 88.4878 41.7605 88.4725 41.5713V41.5853ZM89.3975 40.282V42.3421C89.3975 42.5103 89.3975 42.5944 89.5937 42.5944H89.888V43.3932C89.6761 43.4433 89.4605 43.4761 89.2433 43.4913C89.1604 43.501 89.0764 43.4942 88.9961 43.4712C88.9159 43.4482 88.841 43.4095 88.7758 43.3574C88.7106 43.3052 88.6565 43.2407 88.6164 43.1674C88.5764 43.0942 88.5513 43.0137 88.5426 42.9307C88.328 43.1462 88.0686 43.312 87.7828 43.4161C87.497 43.5203 87.1919 43.5603 86.8889 43.5333C86.4998 43.5563 86.1173 43.4254 85.8238 43.1689C85.6943 43.039 85.5936 42.8833 85.5284 42.7118C85.4632 42.5404 85.4349 42.3571 85.4454 42.1739C85.4226 41.9534 85.4649 41.7311 85.567 41.5344C85.6691 41.3376 85.8266 41.1751 86.02 41.0668C86.3359 40.9134 86.6786 40.8229 87.029 40.8005C87.4446 40.7601 87.8568 40.6898 88.2623 40.5903C88.3324 40.5682 88.3929 40.5228 88.4337 40.4617C88.4745 40.4005 88.4931 40.3272 88.4865 40.254C88.4865 39.8335 88.1642 39.6233 87.4915 39.6233C86.8188 39.6233 86.5526 39.8616 86.5245 40.3521H85.6276C85.6337 40.1247 85.6896 39.9015 85.7913 39.6981C85.893 39.4947 86.038 39.3161 86.2162 39.1749C86.5978 38.9382 87.0433 38.8256 87.4915 38.8525C87.7861 38.8138 88.0856 38.8402 88.3689 38.9298C88.6522 39.0194 88.9124 39.17 89.1312 39.3711C89.3201 39.6307 89.4141 39.9473 89.3975 40.268V40.282ZM83.1751 42.1179V39.8055H82.4744V38.9927H83.2031V37.5912H84.1281V38.9927H85.081V39.8055H84.1281V41.7955C84.1064 41.9865 84.1064 42.1792 84.1281 42.3701C84.1466 42.4292 84.1841 42.4805 84.2348 42.5159C84.2855 42.5514 84.3465 42.5692 84.4084 42.5663H85.081V43.3651C84.8449 43.4066 84.606 43.4301 84.3663 43.4352C84.1802 43.4628 83.9902 43.4454 83.8122 43.3845C83.6342 43.3235 83.4734 43.2208 83.3433 43.0849C83.1928 42.7812 83.1343 42.4403 83.1751 42.1039V42.1179ZM81.1851 38.306V37.381H82.11V38.306H81.1851ZM81.1851 43.3371V38.9927H82.11V43.3371H81.1851ZM79.4753 38.9787H80.3862V43.183C80.4203 43.6925 80.2544 44.1952 79.9238 44.5844C79.7074 44.7925 79.4494 44.9525 79.1669 45.054C78.8843 45.1554 78.5834 45.196 78.2841 45.173C76.9667 45.173 76.28 44.6965 76.21 43.7716H77.177C77.1872 43.8859 77.2259 43.9958 77.2896 44.0912C77.3532 44.1867 77.4398 44.2647 77.5413 44.3181C77.7696 44.4033 78.0127 44.4414 78.2561 44.4302C78.4251 44.4522 78.5969 44.4342 78.7578 44.3779C78.9187 44.3216 79.0641 44.2285 79.1826 44.1059C79.3011 43.9834 79.3892 43.8348 79.4401 43.6721C79.4909 43.5095 79.503 43.3371 79.4753 43.1689V42.6504C79.3078 42.8623 79.095 43.0339 78.8525 43.1528C78.61 43.2716 78.3439 43.3346 78.0739 43.3371C77.8305 43.3478 77.5875 43.3099 77.3589 43.2257C77.1303 43.1415 76.9208 43.0126 76.7425 42.8466C76.5232 42.6248 76.3536 42.3589 76.2448 42.0666C76.1361 41.7742 76.0908 41.4621 76.1119 41.1509C76.0887 40.6018 76.2571 40.0618 76.5884 39.6233C76.7605 39.3957 76.9861 39.2139 77.2452 39.0941C77.5043 38.9744 77.7889 38.9203 78.0739 38.9366C78.3537 38.9031 78.6371 38.9547 78.8871 39.0847C79.1371 39.2147 79.3421 39.4171 79.4753 39.6654V38.9787ZM76.9948 41.0668C76.9789 41.3938 77.0781 41.7162 77.2751 41.9777C77.396 42.1258 77.5509 42.2426 77.7265 42.3182C77.9021 42.3938 78.0934 42.4261 78.2841 42.4122C78.4457 42.4162 78.6062 42.3844 78.754 42.319C78.9019 42.2535 79.0333 42.1561 79.139 42.0338C79.3724 41.7618 79.4928 41.4108 79.4753 41.0528C79.4881 40.8533 79.4527 40.6538 79.3722 40.4708C79.2917 40.2879 79.1685 40.127 79.0128 40.0017C78.7746 39.8354 78.4906 39.7472 78.2 39.7495C78.0397 39.7455 77.8805 39.776 77.733 39.8389C77.5856 39.9017 77.4533 39.9955 77.3451 40.1138C77.1166 40.3729 76.9918 40.7073 76.9948 41.0528V41.0668ZM74.5143 38.2639V37.339H75.4672V38.2639H74.5143ZM74.5143 43.2951V38.9506H75.4672V43.2951H74.5143ZM73.7435 37.339V43.2951H72.8325V42.6925C72.7555 42.9019 72.5995 43.0729 72.3981 43.1689C72.1282 43.3614 71.8046 43.4644 71.4731 43.4632C71.1819 43.4717 70.8933 43.4069 70.6337 43.2746C70.3741 43.1424 70.1519 42.947 69.9876 42.7065C69.6671 42.2473 69.5048 41.6964 69.5251 41.1369C69.5088 40.5778 69.6708 40.0281 69.9876 39.5673C70.1551 39.3319 70.3787 39.142 70.6381 39.0147C70.8975 38.8875 71.1845 38.8269 71.4731 38.8385C71.7529 38.805 72.0363 38.8566 72.2863 38.9866C72.5363 39.1166 72.7413 39.319 72.8746 39.5673V37.339H73.7435ZM70.4921 41.1369C70.4737 41.4883 70.5669 41.8366 70.7584 42.1319C70.8655 42.2741 71.0042 42.3894 71.1635 42.4689C71.3228 42.5483 71.4983 42.5897 71.6763 42.5897C71.8544 42.5897 72.0299 42.5483 72.1892 42.4689C72.3485 42.3894 72.4872 42.2741 72.5943 42.1319C72.7907 41.8383 72.8889 41.4898 72.8746 41.1369C72.886 40.7842 72.7881 40.4367 72.5943 40.1419C72.4825 40.0067 72.3423 39.8979 72.1836 39.8232C72.0249 39.7486 71.8517 39.7098 71.6763 39.7098C71.501 39.7098 71.3278 39.7486 71.1691 39.8232C71.0104 39.8979 70.8702 40.0067 70.7584 40.1419C70.5629 40.4458 70.4696 40.8042 70.4921 41.1649V41.1369Z" fill="black"/>
    </g>
    <defs>
        <linearGradient id="paint0_linear_164_33" x1="7.11937" y1="15.5046" x2="7.11937" y2="41.0948" gradientUnits="userSpaceOnUse">
            <stop stop-color="#FF5000"/>
            <stop offset="1" stop-color="#FF8C00"/>
        </linearGradient>
        <linearGradient id="paint1_linear_164_33" x1="7.02118" y1="0.116943" x2="7.02118" y2="16.0092" gradientUnits="userSpaceOnUse">
            <stop stop-color="#FF5000"/>
            <stop offset="1" stop-color="#FF8C00"/>
        </linearGradient>
        <clipPath id="clip0_164_33">
            <rect width="129.436" height="45" fill="white" transform="translate(0 0.116943)"/>
        </clipPath>
    </defs>
</svg>
