<?xml version="1.0" encoding="utf-8"?>
<!-- Generator: Adobe Illustrator 25.3.1, SVG Export Plug-In . SVG Version: 6.00 Build 0)  -->
<svg version="1.1" id="Ebene_1" xmlns="http://www.w3.org/2000/svg" xmlns:xlink="http://www.w3.org/1999/xlink" x="0px" y="0px"
	 viewBox="0 0 256.8 78.7" style="enable-background:new 0 0 256.8 78.7;" xml:space="preserve">
<style type="text/css">
	.st0{fill:#004687;}
	.st1{fill:#FFE400;}
	.st2{fill:#FFE400;stroke:#004587;stroke-width:1.0001;stroke-miterlimit:3.8637;}
	.st3{fill:none;stroke:#004587;stroke-width:1.0001;stroke-miterlimit:3.8637;}
	.st4{fill:#FFFFFF;}
</style>
<polygon class="st0" points="71.1,1.9 119.5,1.9 119.5,9.9 82,9.9 82,20.5 103.8,20.5 103.8,28.6 82,28.6 82,40.3 119.9,40.3 
	119.9,49.2 71.1,49.2 "/>
<path class="st0" d="M143.8,1.9h27.5c8.8,0,10.5,2.9,10.5,2.9c2.5,3.3,1.9,8.4,1.9,8.4l-9.6,2.3v-5.4h-31.2v10.3h31
	c6,0,7.8,2.2,7.8,2.2c2.9,2.9,2.6,7.2,2.6,7.2v10c0,5.4-2.5,7.3-2.5,7.3c-3.1,2.7-8.9,2.1-8.9,2.1h-31.5c-7.2,0-8.6-4.1-8.6-4.1
	c-1.5-3.6-1.3-8.3-1.3-8.3l9.7-2v5.5h33.3V29.5h-31.6c-5.1,0-6.7-2-6.7-2c-2.9-2.4-2.6-7.4-2.6-7.4v-10c0.1-5,3.4-6.6,3.4-6.6
	C139.4,1.9,143.8,1.9,143.8,1.9L143.8,1.9z"/>
<path class="st0" d="M53.9,11c0,0-5.4-9.1-22.7-9.1H0.6v47.3h30.7c0,0,18.2,1.1,23.9-11.8C55.2,37.4,62.6,23.1,53.9,11L53.9,11z
	 M46.2,30.8c-2.8,10.5-18,9.5-18,9.5H11.5V10.2h17.8c12.4,0,15.1,5.6,15.1,5.6C49.2,22.6,46.2,30.8,46.2,30.8L46.2,30.8z"/>
<path class="st0" d="M226.6,1.9H216l-26.4,47.3h10.6l5.6-10.3h29.9l5.6,10.3h12.4L226.6,1.9L226.6,1.9z M210.5,30.4L221,11.1
	l10.2,19.4h-20.7V30.4z"/>
<path class="st1" d="M56,9.6c0,0-5.4-9.1-22.7-9.1H2.7v47.3h30.7c0,0,18.2,1.1,23.9-11.8C57.3,35.9,64.7,21.6,56,9.6L56,9.6z
	 M48.4,29.4c-2.8,10.5-18,9.5-18,9.5H13.6V8.8h17.8c12.4,0,15.1,5.6,15.1,5.6C51.3,21.2,48.4,29.4,48.4,29.4L48.4,29.4z"/>
<path class="st1" d="M228.7,0.5h-10.6l-26.4,47.3h10.7l5.6-10.3h29.9l5.6,10.3h12.3L228.7,0.5L228.7,0.5z M212.7,29l10.5-19.4
	L233.4,29H212.7L212.7,29z"/>
<polygon class="st2" points="73.2,0.5 121.6,0.5 121.6,8.5 84.2,8.5 84.2,19.1 105.9,19.1 105.9,27.1 84.2,27.1 84.2,38.9 122,38.9 
	122,47.8 73.2,47.8 "/>
<path class="st2" d="M145.9,0.5h27.5c8.8,0,10.5,2.9,10.5,2.9c2.5,3.3,1.9,8.4,1.9,8.4l-9.6,2.3V8.6H145v10.3h31
	c6,0,7.8,2.2,7.8,2.2c2.9,2.9,2.6,7.2,2.6,7.2v10c0,5.4-2.5,7.3-2.5,7.3c-3.1,2.7-8.9,2.1-8.9,2.1h-31.5c-7.2,0-8.6-4.1-8.6-4.1
	c-1.5-3.6-1.3-8.3-1.3-8.3l9.7-2v5.5h33.3V28H145c-5.1,0-6.7-2-6.7-2c-2.9-2.4-2.6-7.4-2.6-7.4v-10c0.1-5,3.4-6.6,3.4-6.6
	C141.6,0.5,145.9,0.5,145.9,0.5L145.9,0.5z"/>
<path class="st3" d="M56,9.6c0,0-5.4-9.1-22.7-9.1H2.7v47.3h30.7c0,0,18.2,1.1,23.9-11.8C57.3,35.9,64.7,21.6,56,9.6L56,9.6z
	 M48.4,29.4c-2.8,10.5-18,9.5-18,9.5H13.6V8.8h17.8c12.4,0,15.1,5.6,15.1,5.6C51.3,21.2,48.4,29.4,48.4,29.4L48.4,29.4z"/>
<path class="st2" d="M228.7,0.5h-10.6l-26.4,47.3h10.7l5.6-10.3h29.9l5.6,10.3h12.3L228.7,0.5L228.7,0.5z M212.7,29l10.5-19.4
	L233.4,29H212.7L212.7,29z"/>
<polygon class="st0" points="0,53.8 256.3,53.8 256.3,78.7 0,78.7 "/>
<path class="st4" d="M16.1,58.6h-3.3L4,73.5h3.4l1.9-3.3h10l2,3.3h3.9L16.1,58.6L16.1,58.6z M10.8,67.6l3.5-6.4l3.5,6.4H10.8
	L10.8,67.6z"/>
<path class="st4" d="M187.5,58.6h-3.3l-8.8,14.9h3.4l1.9-3.3h10l2,3.3h3.9L187.5,58.6L187.5,58.6z M182.2,67.6l3.5-6.4l3.5,6.4
	H182.2L182.2,67.6z"/>
<path class="st4" d="M38,73.5h11.9c0,0,2.7,0.2,2.7-2.9v-12h-3.4v12.2H38.3V58.6h-3.4v11.9C34.9,73.8,38,73.5,38,73.5L38,73.5z"/>
<path class="st4" d="M107.5,58.6H94.1c0,0-3.1-0.3-3.1,3v8.9c0,3.3,3.1,3,3.1,3h13.4c0,0,2.7,0.2,2.7-2.9v-9.1
	C110.2,58.3,107.5,58.6,107.5,58.6L107.5,58.6z M106.7,70.8H94.4v-9.7h12.3V70.8L106.7,70.8z"/>
<path class="st4" d="M140.4,64.9v5.6c0,3.2-2.7,2.9-2.7,2.9h-12.6c0,0-3.1,0.3-3.1-3v-8.9c0-3.3,3.1-3,3.1-3h12.6
	c0,0,2.7-0.2,2.7,2.9v0.7l-3.4,0.6v-1.6h-11.6v9.7H137v-3.3h-5.8V65L140.4,64.9L140.4,64.9z"/>
<polygon class="st4" points="62.9,58.6 80.8,58.6 80.8,61 73.6,61 73.6,73.5 70.1,73.5 70.1,61 62.9,61 "/>
<polygon class="st4" points="152.3,58.6 155.8,58.6 155.8,70.9 167.7,70.9 167.7,73.5 152.3,73.5 "/>
<path class="st4" d="M209.8,58.7h9.1c2.9,0,3.4,1,3.4,1c0.8,1.1,0.6,2.4,0.6,2.4l-2.9,0.8v-1.8h-10.5v3.5h10.2c2,0,2.6,0.7,2.6,0.7
	c1,1,0.8,2.4,0.8,2.4v2.8c0,1.8-0.8,2.4-0.8,2.4c-1,0.9-2.9,0.7-2.9,0.7H209c-2.4,0-2.8-1.3-2.8-1.3c-0.5-1.2-0.4-2.4-0.4-2.4l3-0.7
	V71h11.3v-3.7h-10.5c-1.7,0-2.2-0.6-2.2-0.6c-1-0.8-0.8-2.4-0.8-2.4v-2.8c0-1.6,1.1-2.2,1.1-2.2C208.4,58.7,209.8,58.7,209.8,58.7
	L209.8,58.7z"/>
<path class="st4" d="M238,58.7h9.1c2.9,0,3.4,1,3.4,1c0.8,1.1,0.6,2.4,0.6,2.4l-2.9,0.8v-1.8h-10.5v3.5h10.2c2,0,2.6,0.7,2.6,0.7
	c1,1,0.8,2.4,0.8,2.4v2.8c0,1.8-0.8,2.4-0.8,2.4c-1,0.9-2.9,0.7-2.9,0.7h-10.4c-2.4,0-2.8-1.3-2.8-1.3c-0.5-1.2-0.4-2.4-0.4-2.4
	l3-0.7V71h11.3v-3.7h-10.5c-1.7,0-2.2-0.6-2.2-0.6c-1-0.8-0.8-2.4-0.8-2.4v-2.8c0-1.6,1.1-2.2,1.1-2.2C236.5,58.7,238,58.7,238,58.7
	L238,58.7z"/>
<path class="st0" d="M244.8,12.3c-2.1,0-3.6-1.6-3.6-3.7s1.5-3.7,3.6-3.7s3.6,1.6,3.6,3.7S246.9,12.3,244.8,12.3L244.8,12.3z
	 M244.8,12.9c2.4,0,4.2-1.9,4.2-4.3c0-2.3-1.9-4.3-4.2-4.3c-2.4,0-4.3,1.9-4.3,4.3C240.5,11,242.4,12.9,244.8,12.9L244.8,12.9z
	 M245.5,8.8c0.8,0,1.5-0.4,1.5-1.3c0-0.8-0.4-1.3-1.7-1.3h-2.1V11h0.6V8.8h1.1l1.4,2.2h0.7L245.5,8.8L245.5,8.8z M243.8,8.4V6.7h1.4
	c0.6,0,1.2,0.1,1.2,0.8c0,1-1,0.9-1.7,0.9L243.8,8.4L243.8,8.4z"/>
</svg>
